<?xml version="1.0" encoding="utf-8"?>
<!-- Generator: Adobe Illustrator 28.1.0, SVG Export Plug-In . SVG Version: 6.00 Build 0)  -->
<svg version="1.1" id="Livello_1" xmlns="http://www.w3.org/2000/svg" xmlns:xlink="http://www.w3.org/1999/xlink" x="0px" y="0px"
	 viewBox="0 0 619.7 140.7" style="enable-background:new 0 0 619.7 140.7;" xml:space="preserve">
<style type="text/css">
	.st0{fill:#FFFFFF;}
</style>
<g>
	<path class="st0" d="M38.2,130.1H12.1c-0.7,0-3.1-0.2-3.1-3c0-1.4,0.9-2.2,2.1-2.6c3.4-1.1,3.3-1.6,3.3-5.2V68.4
		c0-3.6,0.1-4.2-3.3-5.2C9.9,62.7,9,61.8,9,60.5c0-2.8,2.4-3,3.1-3h26.1V130.1z M42.6,57.5h3c6.1,0,12.3,0.1,17.9,2.8
		c6,3,9.5,8.1,9.5,14.9c0,10.7-8.9,15.6-18.3,17.1v0.2C65.5,94.3,74,99,74,111.1c0,6.9-3,12.3-9.1,15.7c-6.2,3.5-12.3,3.2-19.2,3.2
		h-3.1v-5.6c6.5-0.3,7.3-4,7.3-7.5v-12.5c0-4.5-1.1-8.6-7.3-9.1v-5.6c7.1-0.6,7.3-4.8,7.3-8.3v-9.7c0-4.1-1.5-8-7.3-8.5V57.5z"/>
	<path class="st0" d="M88.9,68.4c0-3.6,0.1-4.2-3.3-5.2c-1.3-0.4-2.1-1.3-2.1-2.6c0-2.8,3.2-3,3.6-3h25.6v61.7
		c0,3.6-0.1,4.2,3.3,5.2c1.3,0.4,2.1,1.3,2.1,2.6c0,2.8-3.2,3-3.6,3H87.1c-0.4,0-3.6-0.2-3.6-3c0-1.4,0.9-2.2,2.1-2.6
		c3.4-1.1,3.3-1.6,3.3-5.2V68.4z M117.1,57.5h0.5c6.3,0,12.9-0.2,18.7,2.6c6.5,3.2,9.8,8.5,9.9,15.9c0.2,11.2-7.2,16-17.1,18.3v0.2
		c8.6,1.3,16.9,3.8,17.1,14.1v8.5c0,0.9-0.3,2.8,1,2.8c1.6,0,1.8-2.8,4.2-2.8c1.3,0,2.8,1.5,2.8,2.8c0,2.8-3.2,6.4-5.3,8.1
		c-3.3,2.7-6.8,3.5-11,3.5c-4.2,0-8-1.1-11-4.1c-3.4-3.5-3.9-7.8-3.9-12.3v-6.6c0-4.5-0.1-9.9-5.9-10.5v-5.7
		c5.2-0.5,5.9-3.7,5.9-8.4V72.1c0-4.9-1.1-7.2-5.9-8.9V57.5z"/>
	<path class="st0" d="M194.6,131.5c-7.7,0-13.6-0.1-20.3-3.8c-8.7-4.9-9.9-8.5-9.9-13.4v-46c0-3.6,0.1-4.2-3.3-5.2
		c-1.3-0.4-2.1-1.3-2.1-2.6c0-2.8,3.2-3,3.6-3H190c0.4,0,3.6,0.2,3.6,3c0,1.4-0.9,2.2-2.1,2.6c-3.4,1.1-3.3,1.6-3.3,5.2V115
		c0,1-0.9,8.6,6.4,10.8V131.5z M211.9,72.8c-1.6-12.1-7.8-8.3-7.8-12.5c0-3,4-2.8,5-2.8h11.1c1.1,0,5-0.2,5,2.8
		c0,4.2-6.2,0.4-7.8,12.5v36.6c-0.8,16-12.3,21.8-18.6,21.9v-5.7c8.9-2.7,12.4-7.8,13-16.4V72.8z"/>
	<path class="st0" d="M283.2,63.6l-29.4,66.5h-23.3v-5.2l29.6-67.3h23.1V63.6z M232.4,57.5h23.4l-2.4,5.6c-8,1.6-13.4,6.3-15.3,13.5
		c-0.5,1.6-1,2.9-2.9,2.9c-2.7,0-2.7-2.2-2.7-2.8V57.5z M283.2,130.1h-25l2.5-5.6c10.1-2.1,13.4-5.1,16.9-14.1
		c0.5-1.6,1-2.9,2.8-2.9c2.7,0,2.7,2.2,2.7,2.8L283.2,130.1z"/>
	<path class="st0" d="M340.2,63.6l-29.4,66.5h-23.3v-5.2l29.6-67.3h23.1V63.6z M289.4,57.5h23.4l-2.4,5.6c-8,1.6-13.4,6.3-15.3,13.5
		c-0.5,1.6-1,2.9-2.9,2.9c-2.7,0-2.7-2.2-2.7-2.8V57.5z M340.2,130.1h-25l2.5-5.6c10.1-2.1,13.4-5.1,16.9-14.1
		c0.5-1.6,1-2.9,2.8-2.9c2.7,0,2.7,2.2,2.7,2.8L340.2,130.1z"/>
	<path class="st0" d="M349.5,57.5h25.6v72.6h-25.6c-0.4,0-3.6-0.2-3.6-3c0-1.4,0.9-2.2,2.1-2.6c3.4-1.1,3.3-1.6,3.3-5.2V68.4
		c0-3.6,0.1-4.2-3.3-5.2c-1.3-0.4-2.1-1.3-2.1-2.6C345.9,57.7,349.1,57.5,349.5,57.5z M379.5,57.5h21.6v19.7c0,0.5-0.1,2.3-3,2.3
		c-1.6,0-2.1-1-2.6-2.4c-2.5-7.9-7.5-12.6-16-14V57.5z M379.5,89.9c4.1-1.1,5.9-4.9,6.8-8.5c0.5-1.6,1.1-3.2,3.1-3.2
		c3,0,2.5,3.5,2.5,4.3v21c0,0.8,0.5,4.3-2.5,4.3c-2,0-2.6-1.6-3.1-3.2c-0.9-3.7-2.7-7.5-6.8-8.5V89.9z M379.5,124.4
		c7.9-1,13.9-6.3,16.5-14.1c0.7-1.5,1.3-3,3-3c3.1,0,2.8,2.9,2.8,3.3v19.4h-22.3V124.4z"/>
	<path class="st0" d="M435.1,61.7c-3.7,1.3-6.9,4-6.9,8c0,4.8,2.6,7.7,14.2,12.1c17.2,6.6,21.1,15.7,21.1,24.6
		c0,15-12.5,24.8-26.9,25.1v-5.6c4.7-1.5,8.6-3.6,8.8-8.9c0.2-6.1-7-8.6-11.6-10.7c-12.2-5.1-23.6-10.7-23.6-25.9
		c0-14.7,10.7-23.9,24.9-24.4V61.7z M410.1,108.3c0-2,0.4-4.8,3.1-4.8c1.9,0,3.3,1.6,3.6,3.2c1.4,7.8,6.8,17.4,15.3,19.1v5.6
		c-8.4-0.2-10.3-3.6-13.8-3.6c-3.1,0-2.8,3.2-5.2,3.2c-3,0-3-3.6-3-4.1V108.3z M460.8,77c0,2.2-0.4,4.7-3.2,4.7
		c-2.3,0-3.2-1.8-3.5-3.8c-1.1-7.2-7.1-14.6-14.6-16.2V56c6.1,0.1,12.6,3.8,13.7,3.8c2.5,0,2.3-3.5,4.9-3.5c3,0,2.8,3.3,2.8,4.1V77z
		"/>
	<path class="st0" d="M474.5,57.5h25.6v72.6h-25.6c-0.4,0-3.6-0.2-3.6-3c0-1.4,0.9-2.2,2.1-2.6c3.4-1.1,3.3-1.6,3.3-5.2V68.4
		c0-3.6,0.1-4.2-3.3-5.2c-1.3-0.4-2.1-1.3-2.1-2.6C471,57.7,474.2,57.5,474.5,57.5z M504.5,57.5h21.6v19.7c0,0.5-0.1,2.3-3,2.3
		c-1.6,0-2.1-1-2.6-2.4c-2.5-7.9-7.5-12.6-16-14V57.5z M504.5,89.9c4.1-1.1,5.9-4.9,6.8-8.5c0.5-1.6,1.1-3.2,3.1-3.2
		c3,0,2.5,3.5,2.5,4.3v21c0,0.8,0.5,4.3-2.5,4.3c-2,0-2.6-1.6-3.1-3.2c-0.9-3.7-2.7-7.5-6.8-8.5V89.9z M504.5,124.4
		c7.9-1,13.9-6.3,16.5-14.1c0.7-1.5,1.3-3,3-3c3.1,0,2.8,2.9,2.8,3.3v19.4h-22.3V124.4z"/>
</g>
<g>
	<path class="st0" d="M23.2,47.6c-7.7,0-13.6-6-13.6-14.5c0-5.9,2.3-12,6.5-16.8c3.8-4.3,8.5-6.6,13.5-6.6c4.6,0,6.5,2.4,7.4,2.4
		c0.6,0,1.2-0.3,1.9-1l1.9,0.1l-2.3,9.3c-0.3,0-0.6,0.1-0.8,0.1c-1.9,0-2-0.8-2.2-2.9c-0.4-4-2.6-5.9-6.5-5.9
		c-3.5,0-7.9,2.8-10.8,7.8c-2.2,3.6-3.6,9-3.6,14.2c0,7.3,3.3,11.3,9.1,11.3c3.6,0,6.5-1.7,9.7-5.3l1.7,1.4
		C31.7,45.4,27.7,47.6,23.2,47.6z"/>
	<path class="st0" d="M48.8,16.3c3.7-4.4,8.3-6.6,13.8-6.6c8.6,0,14,6.3,14,16.1c0,5.5-2.1,11-5.5,15.2c-3.8,4.5-8.3,6.7-14,6.7
		c-8.6,0-13.9-6.2-13.9-15.9C43.2,26.2,45.2,20.7,48.8,16.3z M52.1,18.5C49.5,22.6,47.6,29,47.6,34c0,7.4,3.5,11.6,9.2,11.6
		c4.4,0,8.2-2.3,10.9-6.6c2.7-4.3,4.5-10.5,4.5-15.4c0-7.2-3.5-11.6-9.3-11.6C58.7,11.9,54.9,14.2,52.1,18.5z"/>
	<path class="st0" d="M102.1,37.1c0,5.9-5,10.6-12.5,10.6c-3.7,0-6-1.8-7.3-1.8c-0.7,0-1.3,0.3-1.6,1h-2l2.2-8.9c0.1,0,0.1,0,0.2,0
		c1.4,0,1.8,0.7,2.4,2.3c1.1,3,2.4,5,6.2,5c5,0,8.3-3.3,8.3-7.2c0-2.1-1-4.2-2.6-5.6L90.2,28c-2.6-2.2-3.9-5.1-3.9-8.1
		c0-5.7,4.3-10.3,10.3-10.3c4.2,0,5.9,2.1,7,2.1c0.7,0,1.3-0.4,1.8-1.1h1.7L105,19c-0.1,0-0.2,0-0.3,0c-1.5,0-2.1-0.6-2.5-2.1
		c-0.8-2.9-1.8-5.1-5.4-5.1c-3.6,0-6.7,3.3-6.7,7.2c0,1.7,0.8,3.5,2.3,4.8l4.6,4C100.4,30.7,102.1,33.8,102.1,37.1z"/>
	<path class="st0" d="M120.8,43.7c0,1.1,1.8,1.3,1.8,2.2c0,0.4-0.1,0.8-0.3,1.1h-9.3c0-0.1,0-0.2,0-0.2c0-1.6,1.1-1.6,2.4-2.3
		c0.8-0.5,1.1-1.7,1.5-3.4l7.1-28.8H121c-3,0-4.4,1.1-5.6,3.4c-0.8,1.6-1.4,2.6-3.4,2.6c-0.2,0-0.3,0-0.5,0l2.6-8.7
		c2.2,0.4,4,0.6,5.2,0.6h15.6c1.3,0,3.1-0.2,5.6-0.6l-2.1,8.7c-0.3,0.1-0.6,0.1-0.9,0.1c-1.4,0-1.5-0.9-1.7-2.6
		c-0.4-2.3-1.7-3.5-3.8-3.5h-3.5l-7.2,29.1C121,42.2,120.8,43,120.8,43.7z"/>
	<path class="st0" d="M144.6,43.7c0,1.1,1.8,1.4,1.8,2.3c0,0.4-0.1,0.8-0.3,1.1H137c0-0.1,0-0.2,0-0.2c0-1.6,1.1-1.6,2.4-2.3
		c0.8-0.5,1-1.7,1.5-3.4l6.2-24.8c0.3-1.1,0.5-2,0.5-2.5c0-1.1-1.8-1.5-1.8-2.3c0-0.4,0.1-0.8,0.2-1.1h12.3c7.5,0,11.4,2.1,11.4,7.9
		c0,5.8-4.7,10.3-13.3,10.9c1.6,0.6,2.4,1.4,2.9,2.7l3.5,10.2c0.5,1.4,0.7,2.2,1.7,2.7c0.7,0.4,1.5,0.6,1.5,1.5
		c0,0.2-0.1,0.5-0.2,0.9H160l-4.1-12.8c-1-3.3-2.2-4.7-5.5-4.7c-0.6,0-1.5,0.1-2.4,0.2l-2.9,11.7C144.8,42.4,144.6,43.1,144.6,43.7z
		 M152.3,12.4L148.7,27c1.8,0.1,2.9,0.2,3.3,0.2c4.3,0,7.3-0.4,9.4-1.9c2.3-1.6,3.6-4.2,3.6-7c0-4.2-2.2-5.8-7.1-5.8H152.3z"/>
	<path class="st0" d="M180.7,13.8c0-1.1-1.8-1.5-1.8-2.3c0-0.4,0.1-0.8,0.2-1.1h9.3c0,0.1,0,0.2,0,0.2c0,1.5-1.1,1.5-2.1,2.2
		c-1.1,0.8-1.3,2-1.6,3.3L179.2,38c-0.2,0.6-0.2,1.3-0.2,1.9c0,3.4,2.6,5.6,6.9,5.6c5.2,0,8.9-2.8,10.1-7.8l5.3-21.4
		c0.3-1.1,0.5-1.9,0.5-2.5c0-1.1-1.8-1.5-1.8-2.3c0-0.4,0.1-0.8,0.3-1.1h7.2c0,0.1,0,0.2,0,0.2c0,1.5-1,1.4-2.1,2.2
		c-1.2,0.9-1.3,2.1-1.6,3.3l-5.5,21.5c-1.7,6.7-6.1,10.2-12.8,10.2c-6.1,0-10.5-3.8-10.5-8.3c0-1.2,0.2-2.3,0.4-3.4l4.8-19.6
		C180.5,15.1,180.7,14.3,180.7,13.8z"/>
	<path class="st0" d="M204.4,47.1l0.3-2.3l26.1-32.2h-7.1c-4.4,0-6.3,1-8,3.8c-0.8,1.4-1.3,2.3-3.1,2.3c-0.2,0-0.5,0-0.7-0.1
		l2.3-8.9c1.4,0.4,2.7,0.6,4.1,0.6h18.3v1.6L210,44.8h7c5.1,0,7.7-0.7,9.5-3.5c1.1-1.7,1.5-3.2,3.7-3.2c0.2,0,0.4,0.1,0.6,0.1
		l-2.3,9H204.4z"/>
	<path class="st0" d="M246.3,13.8c0-1.1-1.8-1.5-1.8-2.3c0-0.4,0.1-0.8,0.3-1.1h9.3c0,0.1,0,0.2,0,0.2c0,1.5-1.1,1.5-2.2,2.2
		c-1,0.8-1.3,1.9-1.6,3.3l-6.4,25.4c-0.3,1-0.4,1.8-0.4,2.2c0,1.1,1.8,1.4,1.8,2.3c0,0.4-0.1,0.8-0.3,1.1h-9.3c0-0.1,0-0.2,0-0.2
		c0-1.6,1.1-1.6,2.4-2.3c0.8-0.5,1-1.7,1.5-3.4l6.3-24.8C246.1,15.1,246.3,14.3,246.3,13.8z"/>
	<path class="st0" d="M262,16.3c3.7-4.4,8.3-6.6,13.8-6.6c8.6,0,14,6.3,14,16.1c0,5.5-2.1,11-5.5,15.2c-3.8,4.5-8.3,6.7-14,6.7
		c-8.6,0-13.9-6.2-13.9-15.9C256.3,26.2,258.3,20.7,262,16.3z M265.2,18.5c-2.6,4.1-4.5,10.4-4.5,15.4c0,7.4,3.5,11.6,9.2,11.6
		c4.4,0,8.2-2.3,10.9-6.6c2.7-4.3,4.5-10.5,4.5-15.4c0-7.2-3.5-11.6-9.3-11.6C271.8,11.9,268,14.2,265.2,18.5z"/>
	<path class="st0" d="M292,46.9c0-1.6,1.1-1.6,2.4-2.3c0.8-0.5,1-1.7,1.5-3.4l6.3-24.8c0.3-1.1,0.5-2,0.5-2.5c0-1.1-1.8-1.5-1.8-2.3
		c0-0.4,0.1-0.8,0.3-1.1h7.4L319,38.2l5.4-21.9c0.3-1,0.5-1.9,0.5-2.5c0-1.1-1.8-1.5-1.8-2.3c0-0.4,0.1-0.8,0.3-1.1h7.4
		c0,0.1,0,0.2,0,0.3c0,1.3-0.8,1.4-1.8,2c-1,0.7-1.6,1.9-1.6,2c0,0.1-0.2,0.6-0.4,1.5l-7.9,31.4h-0.9l-13-33.6l-6.9,27.6
		c-0.2,0.8-0.4,1.6-0.4,2.2c0,1.1,1.8,1.4,1.8,2.3c0,0.4-0.1,0.8-0.2,1.1H292C292,47,292,46.9,292,46.9z"/>
	<path class="st0" d="M339.2,13.8c0-1.1-1.8-1.5-1.8-2.3c0-0.4,0.1-0.8,0.3-1.1h9.3c0,0.1,0,0.2,0,0.2c0,1.5-1.1,1.5-2.2,2.2
		c-1,0.8-1.3,1.9-1.6,3.3l-6.4,25.4c-0.3,1-0.4,1.8-0.4,2.2c0,1.1,1.8,1.4,1.8,2.3c0,0.4-0.1,0.8-0.3,1.1h-9.3c0-0.1,0-0.2,0-0.2
		c0-1.6,1.1-1.6,2.4-2.3c0.8-0.5,1-1.7,1.5-3.4l6.3-24.8C339.1,15.1,339.2,14.3,339.2,13.8z"/>
</g>
<g>
	<path class="st0" d="M565,120.6c0,5.2-4.4,9.4-11.1,9.4c-3.3,0-5.4-1.6-6.5-1.6c-0.6,0-1.1,0.3-1.4,0.9h-1.8l2-7.9c0,0,0.1,0,0.1,0
		c1.2,0,1.6,0.6,2.1,2.1c1,2.7,2.2,4.4,5.5,4.4c4.4,0,7.4-3,7.4-6.4c0-1.8-0.9-3.7-2.3-5l-4.5-4c-2.3-2-3.5-4.5-3.5-7.2
		c0-5,3.8-9.1,9.1-9.1c3.7,0,5.3,1.9,6.2,1.9c0.6,0,1.1-0.4,1.6-1h1.5l-1.8,7.4c-0.1,0-0.2,0-0.3,0c-1.3,0-1.8-0.6-2.2-1.9
		c-0.7-2.6-1.6-4.5-4.8-4.5c-3.2,0-5.9,2.9-5.9,6.4c0,1.5,0.7,3.1,2.1,4.3l4.1,3.6C563.5,115,565,117.7,565,120.6z"/>
	<path class="st0" d="M574.6,126.4c0,1,1.6,1.2,1.6,2c0,0.4-0.1,0.7-0.2,1h-8.2c0,0,0-0.1,0-0.2c0-1.4,1-1.4,2.2-2.1
		c0.7-0.5,0.9-1.5,1.3-3.1l5.5-22c0.3-1,0.4-1.8,0.4-2.2c0-1-1.6-1.3-1.6-2.1c0-0.4,0-0.7,0.2-1h10.9c6.7,0,10.1,1.9,10.1,7
		c0,5.1-4.2,9.1-11.8,9.7c1.4,0.5,2.2,1.2,2.6,2.4l3.1,9c0.4,1.2,0.6,2,1.5,2.4c0.6,0.3,1.3,0.6,1.3,1.3c0,0.2,0,0.5-0.1,0.8h-5.1
		l-3.6-11.4c-0.9-2.9-1.9-4.2-4.9-4.2c-0.6,0-1.3,0-2.2,0.2l-2.6,10.4C574.8,125.3,574.6,126,574.6,126.4z M581.4,98.7l-3.2,12.9
		c1.6,0.1,2.6,0.1,3,0.1c3.8,0,6.5-0.4,8.4-1.7c2-1.4,3.2-3.7,3.2-6.2c0-3.7-1.9-5.1-6.3-5.1H581.4z"/>
	<path class="st0" d="M597.3,129.3c0-1.4,1-1.4,2.2-2.1c0.7-0.5,0.9-1.5,1.3-3.1l5.5-22c0.3-1,0.4-1.8,0.4-2.2c0-1-1.6-1.3-1.6-2.1
		c0-0.4,0.1-0.7,0.2-1h8.2c0,0,0,0.1,0,0.2c0,1.3-1,1.3-1.9,2c-1,0.7-1.2,1.8-1.4,2.9l-6.2,25.1h3.5c4.2,0,6.3-0.3,8.4-3.2
		c1.2-1.5,1.3-2.6,3.2-2.6c0.1,0,0.4,0,0.6,0l-2,8.2h-20.3C597.3,129.4,597.3,129.4,597.3,129.3z"/>
</g>
<g>
</g>
<g>
</g>
<g>
</g>
<g>
</g>
<g>
</g>
<g>
</g>
</svg>
