<?xml version="1.0" encoding="UTF-8"?>
<svg id="Livello_1" xmlns="http://www.w3.org/2000/svg" version="1.1" viewBox="0 0 1531.48 194.1">
  <!-- Generator: Adobe Illustrator 30.0.0, SVG Export Plug-In . SVG Version: 2.1.1 Build 123)  -->
  <defs>
    <style>
      .st0 {
        fill: #fff;
      }
    </style>
  </defs>
  <g>
    <path class="st0" d="M61.6,169.7h-31.8c-.9,0-3.8-.2-3.8-3.7s1.1-2.7,2.6-3.2c4.1-1.3,4-2,4-6.3v-62.1c0-4.4.1-5.1-4-6.3-1.5-.6-2.6-1.7-2.6-3.3,0-3.4,2.9-3.7,3.8-3.7h31.8v88.6ZM67,81.1h3.7c7.4,0,15,0,21.8,3.4,7.3,3.7,11.6,9.9,11.6,18.2,0,13.1-10.9,19-22.3,20.9v.2c13.2,2.2,23.5,7.9,23.5,22.7s-3.7,15-11.1,19.2c-7.6,4.3-15,3.9-23.4,3.9h-3.8v-6.8c7.9-.4,8.9-4.9,8.9-9.1v-15.2c0-5.5-1.3-10.5-8.9-11.1v-6.8c8.7-.7,8.9-5.9,8.9-10.1v-11.8c0-5-1.8-9.8-8.9-10.4v-7.2Z"/>
    <path class="st0" d="M123.5,94.4c0-4.4,0-5.1-4-6.3-1.6-.5-2.6-1.6-2.6-3.2,0-3.4,3.9-3.7,4.4-3.7h31.2v75.3c0,4.4,0,5.1,4,6.3,1.6.5,2.6,1.6,2.6,3.2,0,3.4-3.9,3.7-4.4,3.7h-33.4c-.5,0-4.4-.2-4.4-3.7s1.1-2.7,2.6-3.2c4.1-1.3,4-2,4-6.3v-62.1h0ZM157.9,81.1h.6c7.7,0,15.7-.2,22.8,3.2,7.9,3.9,12,10.4,12.1,19.4.2,13.7-8.8,19.5-20.9,22.3v.2c10.5,1.6,20.6,4.6,20.9,17.2v10.4c0,1.1-.4,3.4,1.2,3.4s2.2-3.4,5.1-3.4,3.4,1.8,3.4,3.4c0,3.4-3.9,7.8-6.5,9.9-4,3.3-8.3,4.3-13.4,4.3s-9.8-1.3-13.4-5c-4.1-4.3-4.8-9.5-4.8-15v-8.1c0-5.5,0-12.1-7.2-12.8v-7c6.3-.6,7.2-4.5,7.2-10.2v-14.4c0-6-1.3-8.8-7.2-10.9v-7h0l.1.1Z"/>
    <path class="st0" d="M252.4,171.4c-9.4,0-16.6-.1-24.8-4.6-10.6-6-12.1-10.4-12.1-16.3v-56.1c0-4.4.1-5.1-4-6.3-1.6-.5-2.6-1.6-2.6-3.2,0-3.4,3.9-3.7,4.4-3.7h33.4c.5,0,4.4.2,4.4,3.7s-1.1,2.7-2.6,3.2c-4.1,1.3-4,2-4,6.3v57c0,1.2-1.1,10.5,7.8,13.2v7h0l.1-.2ZM273.5,99.8c-2-14.8-9.5-10.1-9.5-15.2s4.9-3.4,6.1-3.4h13.5c1.3,0,6.1-.2,6.1,3.4s-7.6.5-9.5,15.2v44.6c-1,19.5-15,26.6-22.7,26.7v-7c10.9-3.3,15.1-9.5,15.9-20v-44.4h.1v.1Z"/>
    <path class="st0" d="M360.5,88.5l-35.9,81.1h-28.4v-6.3l36.1-82.1h28.2v7.3h0ZM298.5,81.1h28.5l-2.9,6.8c-9.8,2-16.3,7.7-18.7,16.5-.6,2-1.2,3.5-3.5,3.5-3.3,0-3.3-2.7-3.3-3.4v-23.4h-.1ZM360.5,169.7h-30.5l3-6.8c12.3-2.6,16.3-6.2,20.6-17.2.6-2,1.2-3.5,3.4-3.5,3.3,0,3.3,2.7,3.3,3.4v24.2h.1l.1-.1Z"/>
    <path class="st0" d="M430,88.5l-35.9,81.1h-28.4v-6.3l36.1-82.1h28.2v7.3h0ZM368,81.1h28.5l-2.9,6.8c-9.8,2-16.3,7.7-18.7,16.5-.6,2-1.2,3.5-3.5,3.5-3.3,0-3.3-2.7-3.3-3.4v-23.4h-.1ZM430,169.7h-30.5l3-6.8c12.3-2.6,16.3-6.2,20.6-17.2.6-2,1.2-3.5,3.4-3.5,3.3,0,3.3,2.7,3.3,3.4v24.2h.1l.1-.1Z"/>
    <path class="st0" d="M441.4,81.1h31.2v88.6h-31.2c-.5,0-4.4-.2-4.4-3.7s1.1-2.7,2.6-3.2c4.1-1.3,4-2,4-6.3v-62.1c0-4.4.1-5.1-4-6.3-1.6-.5-2.6-1.6-2.6-3.2,0-3.5,3.9-3.8,4.4-3.8h0ZM478,81.1h26.3v24c0,.6-.1,2.8-3.7,2.8s-2.6-1.2-3.2-2.9c-3-9.6-9.1-15.4-19.5-17.1v-6.8h.1ZM478,120.6c5-1.3,7.2-6,8.3-10.4.6-2,1.3-3.9,3.8-3.9,3.7,0,3,4.3,3,5.2v25.6c0,1,.6,5.2-3,5.2s-3.2-2-3.8-3.9c-1.1-4.5-3.3-9.1-8.3-10.4v-7.6h0v.2ZM478,162.7c9.6-1.2,17-7.7,20.1-17.2.9-1.8,1.6-3.7,3.7-3.7,3.8,0,3.4,3.5,3.4,4v23.7h-27.2v-6.8Z"/>
    <path class="st0" d="M545.8,86.2c-4.5,1.6-8.4,4.9-8.4,9.8s3.2,9.4,17.3,14.8c21,8.1,25.7,19.2,25.7,30,0,18.3-15.2,30.3-32.8,30.6v-6.8c5.7-1.8,10.5-4.4,10.7-10.9.2-7.4-8.5-10.5-14.2-13.1-14.9-6.2-28.8-13.1-28.8-31.6s13.1-29.2,30.4-29.8v7h.1ZM515.3,143.1c0-2.4.5-5.9,3.8-5.9s4,2,4.4,3.9c1.7,9.5,8.3,21.2,18.7,23.3v6.8c-10.2-.2-12.6-4.4-16.8-4.4s-3.4,3.9-6.3,3.9-3.7-4.4-3.7-5v-22.7l-.1.1ZM577.1,104.9c0,2.7-.5,5.7-3.9,5.7s-3.9-2.2-4.3-4.6c-1.3-8.8-8.7-17.8-17.8-19.8v-7c7.4,0,15.4,4.6,16.7,4.6,3,0,2.8-4.3,6-4.3s3.4,4,3.4,5v20.2h-.1v.2Z"/>
    <path class="st0" d="M593.8,81.1h31.2v88.6h-31.2c-.5,0-4.4-.2-4.4-3.7s1.1-2.7,2.6-3.2c4.1-1.3,4-2,4-6.3v-62.1c0-4.4.1-5.1-4-6.3-1.6-.5-2.6-1.6-2.6-3.2.1-3.5,4-3.8,4.4-3.8h0ZM630.4,81.1h26.3v24c0,.6,0,2.8-3.7,2.8s-2.6-1.2-3.2-2.9c-3-9.6-9.1-15.4-19.5-17.1v-6.8h.1ZM630.4,120.6c5-1.3,7.2-6,8.3-10.4.6-2,1.3-3.9,3.8-3.9,3.7,0,3,4.3,3,5.2v25.6c0,1,.6,5.2-3,5.2s-3.2-2-3.8-3.9c-1.1-4.5-3.3-9.1-8.3-10.4v-7.6h0v.2ZM630.4,162.7c9.6-1.2,17-7.7,20.1-17.2.9-1.8,1.6-3.7,3.7-3.7,3.8,0,3.4,3.5,3.4,4v23.7h-27.2v-6.8Z"/>
  </g>
  <g>
    <path class="st0" d="M43.3,69c-9.4,0-16.6-7.3-16.6-17.7s2.8-14.6,7.9-20.5c4.6-5.2,10.4-8.1,16.5-8.1s7.9,2.9,9,2.9,1.5-.4,2.3-1.2h2.3c0,.1-2.8,11.5-2.8,11.5-.4,0-.7.1-1,.1-2.3,0-2.4-1-2.7-3.5-.5-4.9-3.2-7.2-7.9-7.2s-9.6,3.4-13.2,9.5c-2.7,4.4-4.4,11-4.4,17.3s4,13.8,11.1,13.8,7.9-2.1,11.8-6.5l2.1,1.7c-4.1,5.1-9,7.8-14.5,7.8h0l.1.1Z"/>
    <path class="st0" d="M74.5,30.8c4.5-5.4,10.1-8.1,16.8-8.1,10.5,0,17.1,7.7,17.1,19.6s-2.6,13.4-6.7,18.5c-4.6,5.5-10.1,8.2-17.1,8.2-10.5,0-17-7.6-17-19.4s2.4-13.5,6.8-18.9l.1.1ZM78.6,33.5c-3.2,5-5.5,12.8-5.5,18.9,0,9,4.3,14.2,11.2,14.2s10-2.8,13.3-8.1c3.3-5.2,5.5-12.8,5.5-18.8,0-8.8-4.3-14.2-11.3-14.2-5.1-.1-9.8,2.7-13.2,7.9v.1Z"/>
    <path class="st0" d="M139.6,56.2c0,7.2-6.1,12.9-15.2,12.9s-7.3-2.2-8.9-2.2-1.6.4-2,1.2h-2.4l2.7-10.9h.2c1.7,0,2.2.9,2.9,2.8,1.3,3.7,2.9,6.1,7.6,6.1s10.1-4,10.1-8.8-1.2-5.1-3.2-6.8l-6.3-5.5c-3.2-2.7-4.8-6.2-4.8-9.9,0-7,5.2-12.6,12.6-12.6s7.2,2.6,8.5,2.6,1.6-.5,2.2-1.3h2.1l-2.6,10.2h-.4c-1.8,0-2.6-.7-3-2.6-1-3.5-2.2-6.2-6.6-6.2s-8.2,4-8.2,8.8,1,4.3,2.8,5.9l5.6,4.9c4.1,3.5,6.2,7.3,6.2,11.3h0l.1.1Z"/>
    <path class="st0" d="M162.4,64.3c0,1.3,2.2,1.6,2.2,2.7s0,1-.4,1.3h-11.3v-.2c0-2,1.3-2,2.9-2.8,1-.6,1.3-2.1,1.8-4.1l8.7-35.1h-3.7c-3.7,0-5.4,1.3-6.8,4.1-1,2-1.7,3.2-4.1,3.2h-.6l3.2-10.6c2.7.5,4.9.7,6.3.7h19c1.6,0,3.8-.2,6.8-.7l-2.6,10.6c-.4.1-.7.1-1.1.1-1.7,0-1.8-1.1-2.1-3.2-.5-2.8-2.1-4.3-4.6-4.3h-4.3l-8.8,35.5c-.4,1-.6,2-.6,2.8h.1Z"/>
    <path class="st0" d="M191.4,64.3c0,1.3,2.2,1.7,2.2,2.8s-.1,1-.4,1.3h-11.1v-.2c0-2,1.3-2,2.9-2.8,1-.6,1.2-2.1,1.8-4.1l7.6-30.3c.4-1.3.6-2.4.6-3,0-1.3-2.2-1.8-2.2-2.8s.1-1,.2-1.3h15c9.1,0,13.9,2.6,13.9,9.6s-5.7,12.6-16.2,13.3c2,.7,2.9,1.7,3.5,3.3l4.3,12.4c.6,1.7.9,2.7,2.1,3.3.9.5,1.8.7,1.8,1.8s-.1.6-.2,1.1h-7.1l-5-15.6c-1.2-4-2.7-5.7-6.7-5.7s-1.8.1-2.9.2l-3.5,14.3c-.4.9-.6,1.7-.6,2.4h0ZM200.8,26.1l-4.4,17.8c2.2.1,3.5.2,4,.2,5.2,0,8.9-.5,11.5-2.3,2.8-2,4.4-5.1,4.4-8.5,0-5.1-2.7-7.1-8.7-7.1h-6.8v-.1Z"/>
    <path class="st0" d="M235.4,27.8c0-1.3-2.2-1.8-2.2-2.8s.1-1,.2-1.3h11.3v.2c0,1.8-1.3,1.8-2.6,2.7-1.3,1-1.6,2.4-2,4l-6.7,26.7c-.2.7-.2,1.6-.2,2.3,0,4.1,3.2,6.8,8.4,6.8s10.9-3.4,12.3-9.5l6.5-26.1c.4-1.3.6-2.3.6-3,0-1.3-2.2-1.8-2.2-2.8s.1-1,.4-1.3h8.8v.2c0,1.8-1.2,1.7-2.6,2.7-1.5,1.1-1.6,2.6-2,4l-6.7,26.2c-2.1,8.2-7.4,12.4-15.6,12.4s-12.8-4.6-12.8-10.1.2-2.8.5-4.1l5.9-23.9c.4-1.7.6-2.7.6-3.3h.1Z"/>
    <path class="st0" d="M264.4,68.4l.4-2.8,31.8-39.3h-8.7c-5.4,0-7.7,1.2-9.8,4.6-1,1.7-1.6,2.8-3.8,2.8s-.6,0-.9-.1l2.8-10.9c1.7.5,3.3.7,5,.7h22.3v2l-32.4,40.1h8.5c6.2,0,9.4-.9,11.6-4.3,1.3-2.1,1.8-3.9,4.5-3.9s.5,0,.7,0l-2.8,11h-29.4l.2.1Z"/>
    <path class="st0" d="M315.5,27.8c0-1.3-2.2-1.8-2.2-2.8s.1-1,.4-1.3h11.3v.2c0,1.8-1.3,1.8-2.7,2.7-1.2,1-1.6,2.3-2,4l-7.8,31c-.4,1.2-.5,2.2-.5,2.7,0,1.3,2.2,1.7,2.2,2.8s-.1,1-.4,1.3h-11.3v-.2c0-2,1.3-2,2.9-2.8,1-.6,1.2-2.1,1.8-4.1l7.7-30.3c.2-1.6.5-2.6.5-3.2h.1Z"/>
    <path class="st0" d="M334.6,30.8c4.5-5.4,10.1-8.1,16.8-8.1,10.5,0,17.1,7.7,17.1,19.6s-2.6,13.4-6.7,18.5c-4.6,5.5-10.1,8.2-17.1,8.2-10.5,0-17-7.6-17-19.4-.1-6.8,2.3-13.5,6.8-18.9l.1.1ZM338.5,33.5c-3.2,5-5.5,12.7-5.5,18.8,0,9,4.3,14.2,11.2,14.2s10-2.8,13.3-8.1c3.3-5.2,5.5-12.8,5.5-18.8,0-8.8-4.3-14.2-11.3-14.2s-9.8,2.8-13.2,8.1h0Z"/>
    <path class="st0" d="M371.2,68.2c0-2,1.3-2,2.9-2.8,1-.6,1.2-2.1,1.8-4.1l7.7-30.3c.4-1.3.6-2.4.6-3,0-1.3-2.2-1.8-2.2-2.8s.1-1,.4-1.3h9l12.7,33.8,6.6-26.7c.4-1.2.6-2.3.6-3,0-1.3-2.2-1.8-2.2-2.8s.1-1,.4-1.3h9v.4c0,1.6-1,1.7-2.2,2.4-1.2.9-2,2.3-2,2.4s-.2.7-.5,1.8l-9.6,38.3h-1.1l-15.9-41-8.4,33.7c-.2,1-.5,2-.5,2.7,0,1.3,2.2,1.7,2.2,2.8s-.1,1-.2,1.3h-9.1v-.4h0v-.1Z"/>
    <path class="st0" d="M428.8,27.8c0-1.3-2.2-1.8-2.2-2.8s.1-1,.4-1.3h11.3v.2c0,1.8-1.3,1.8-2.7,2.7-1.2,1-1.6,2.3-2,4l-7.8,31c-.4,1.2-.5,2.2-.5,2.7,0,1.3,2.2,1.7,2.2,2.8s-.1,1-.4,1.3h-11.3v-.2c0-2,1.3-2,2.9-2.8,1-.6,1.2-2.1,1.8-4.1l7.7-30.3c.4-1.6.5-2.6.5-3.2h.1Z"/>
  </g>
  <g>
    <path class="st0" d="M704.2,158.1c0,6.3-5.4,11.5-13.5,11.5s-6.6-2-7.9-2-1.3.4-1.7,1.1h-2.2l2.4-9.6h0c1.5,0,2,.7,2.6,2.6,1.2,3.3,2.7,5.4,6.7,5.4s9-3.7,9-7.8-1.1-4.5-2.8-6.1l-5.5-4.9c-2.8-2.4-4.3-5.5-4.3-8.8,0-6.1,4.6-11.1,11.1-11.1s6.5,2.3,7.6,2.3,1.3-.5,2-1.2h1.8l-2.2,9h-.4c-1.6,0-2.2-.7-2.7-2.3-.9-3.2-2-5.5-5.9-5.5s-7.2,3.5-7.2,7.8.9,3.8,2.6,5.2l5,4.4c3.5,3.2,5.4,6.5,5.4,10h.1Z"/>
    <path class="st0" d="M715.9,165.1c0,1.2,2,1.5,2,2.4s0,.9-.2,1.2h-10v-.2c0-1.7,1.2-1.7,2.7-2.6.9-.6,1.1-1.8,1.6-3.8l6.7-26.8c.4-1.2.5-2.2.5-2.7,0-1.2-2-1.6-2-2.6s0-.9.2-1.2h13.3c8.2,0,12.3,2.3,12.3,8.5s-5.1,11.1-14.4,11.8c1.7.6,2.7,1.5,3.2,2.9l3.8,11c.5,1.5.7,2.4,1.8,2.9.7.4,1.6.7,1.6,1.6v1h-6.2l-4.4-13.9c-1.1-3.5-2.3-5.1-6-5.1s-1.6,0-2.7.2l-3.2,12.7c-.2,1.2-.5,2.1-.5,2.6h-.1v.1ZM724.2,131.4l-3.9,15.7h3.7c4.6,0,7.9-.5,10.2-2.1,2.4-1.7,3.9-4.5,3.9-7.6,0-4.5-2.3-6.2-7.7-6.2h-6.2v.2Z"/>
    <path class="st0" d="M743.6,168.7c0-1.7,1.2-1.7,2.7-2.6.9-.6,1.1-1.8,1.6-3.8l6.7-26.8c.4-1.2.5-2.2.5-2.7,0-1.2-2-1.6-2-2.6s0-.9.2-1.2h10v.2c0,1.6-1.2,1.6-2.3,2.4-1.2.9-1.5,2.2-1.7,3.5l-7.6,30.6h4.3c5.1,0,7.7-.4,10.2-3.9,1.5-1.8,1.6-3.2,3.9-3.2h.7l-2.4,10h-24.8c0-.1-.1-.1-.1-.1l.1.2Z"/>
  </g>
  <g>
    <path class="st0" d="M983.1,171h-16.7c-3.1,0-5.7-2.6-5.7-5.7s2.6-5.7,5.7-5.7h16.7c12.3,0,22.3-10,22.3-22.3s-7.9-16.1-14.5-20.4c-2.7-1.7-3.5-5.2-1.7-7.9s5.2-3.5,7.9-1.7c16.3,10.4,19.8,22,19.8,30,0,18.7-15.2,33.7-33.7,33.7h-.1Z"/>
    <path class="st0" d="M937.1,88.7c-3.1,0-5.7-2.6-5.7-5.7V29.3c0-3.1,2.6-5.7,5.7-5.7s5.7,2.6,5.7,5.7v53.7c0,3.1-2.6,5.7-5.7,5.7h0Z"/>
    <path class="st0" d="M879.1,171c3.1,0,5.7-2.6,5.7-5.7v-45.9c0-3.1-2.6-5.7-5.7-5.7s-5.7,2.6-5.7,5.7v45.9c0,3.1,2.6,5.7,5.7,5.7Z"/>
    <path class="st0" d="M879.1,88.7c3.1,0,5.7-2.6,5.7-5.7v-48.3c0-3.1-2.6-5.7-5.7-5.7s-5.7,2.6-5.7,5.7v48.2c0,3.1,2.6,5.7,5.7,5.7h0v.1Z"/>
    <path class="st0" d="M966.4,171c3,0,5.6-2.4,5.7-5.6,2.1-60.6-51-108.3-82.8-131h-.2c0-.1-6.7-4.5-6.7-4.5-2.7-1.7-6.1-.9-7.9,1.6-1.7,2.7-.9,6.1,1.6,7.9l6.6,4.4c29.9,21.4,79.8,66.1,77.9,121.3-.1,3.1,2.3,5.8,5.6,5.9h.2Z"/>
    <path class="st0" d="M919.9,171h-40.7c-3.1,0-5.7-2.6-5.7-5.7s2.6-5.7,5.7-5.7h40.7c3.1,0,5.7,2.6,5.7,5.7s-2.6,5.7-5.7,5.7Z"/>
    <path class="st0" d="M973.6,106.2h-49.7c-3.1,0-5.7-2.6-5.7-5.7s2.6-5.7,5.7-5.7h49.7c16.5,0,29.9-13.3,29.9-29.9s-13.3-29.9-29.9-29.9h-36.6c-3.1,0-5.7-2.6-5.7-5.7s2.6-5.7,5.7-5.7h36.6c22.8,0,41.3,18.6,41.3,41.3s-18.6,41.3-41.3,41.3h0Z"/>
  </g>
  <g>
    <path class="st0" d="M1179.77,74.7h11.3c6.4,0,9.6,3.5,9.6,10.6v29.2c0,7.1-3.5,10.6-10.1,10.6h-10.8v-50.4h0s0,0,0,0ZM1187.07,81.7v36h3.1c2.1,0,3.1-1.2,3.1-3.5v-29.2c0-2.4-.9-3.5-3.1-3.5h-3.1v.2Z"/>
    <path class="st0" d="M1206.87,74.7h18.8v7.1h-11.5v14.6h10.1v7.3h-10.1v14.6h11.5v7.1h-18.8v-50.7Z"/>
    <path class="st0" d="M1231.07,74.7h7.3l6.8,29.2v-29.2h6.8v50.6h-7.3l-6.6-28.2v28.2h-7.1v-50.6h.1Z"/>
    <path class="st0" d="M1258.87,74.7h7.3v50.6h-7.3s0-50.6,0-50.6Z"/>
    <path class="st0" d="M1272.47,84.6c0-7.1,3.5-10.6,10.3-10.6s10.3,3.5,10.3,10.6v6.8h-7.3v-6.8c0-2.4-.9-3.5-3.1-3.5h0c-2.1,0-3.1,1.2-3.1,3.5v4.7c0,2.4,2.4,4.9,6.8,8.2,4.5,3.3,6.8,7.1,6.8,11.5v6.4c0,7.1-3.5,10.6-10.3,10.6s-10.3-3.5-10.3-10.6v-6.8h7.3v6.8c0,2.4.9,3.5,3.1,3.5s3.1-1.2,3.1-3.5v-5.9c0-2.4-2.4-5.2-6.8-8.5-4.5-3.3-6.8-7.1-6.8-11.8v-4.7h0v.1Z"/>
    <path class="st0" d="M1312.67,74.7h11.3c6.4,0,9.6,3.5,9.6,10.6v7.5c0,3.3-1.4,5.6-4,7.1,2.6,1.4,4,3.8,4,7.1v7.5c0,7.1-3.5,10.6-10.1,10.6h-10.8v-50.6h0s0,.2,0,.2ZM1319.77,81.7v14.6h2.4c.9,0,1.6,0,2.1-.2,1.4-.5,1.9-1.6,1.9-3.1v-7.5c0-2.4-.9-3.5-3.1-3.5h-3.1l-.2-.2v-.1ZM1319.77,103.4v14.6h3.1c2.1,0,3.1-1.2,3.1-3.5v-7.5c0-1.6-.7-2.6-1.9-3.1-.5,0-.9-.2-2.1-.2h-2.4l.2-.2v-.1Z"/>
    <path class="st0" d="M1339.27,74.7h10.6c6.4,0,9.6,3.5,9.6,10.6v7.5c0,4.5-1.9,7.3-5.6,8.9l8.2,23.5h-8l-6.6-22.1h-.9v22.1h-7.3v-50.6h0v.1ZM1346.57,81.7v14.6h1.6c.9,0,1.6,0,2.1-.2,1.4-.5,1.9-1.6,1.9-3.1v-7.5c0-2.4-.9-3.5-3.1-3.5h-2.6v-.2l.1-.1Z"/>
    <path class="st0" d="M1386.77,115.4c0,7.1-3.5,10.6-10.3,10.6s-10.3-3.5-10.3-10.6v-40.7h7.3v40.7c0,2.4.9,3.5,3.1,3.5s3.1-1.2,3.1-3.5v-40.7h7.3v40.7h-.2Z"/>
    <path class="st0" d="M1410.07,78.9l-9.9,38.8h10.3v7.1h-18.3v-4.2l9.9-38.8h-9.4v-7.1h17.9v4.2h-.5Z"/>
    <path class="st0" d="M1432.67,78.9l-9.9,38.8h10.3v7.1h-18.3v-4.2l9.9-38.8h-9.4v-7.1h17.9v4.2h-.5Z"/>
    <path class="st0" d="M1438.57,74.7h18.8v7.1h-11.5v14.6h10.1v7.3h-10.1v14.6h11.5v7.1h-18.8v-50.7Z"/>
    <path class="st0" d="M1462.27,84.6c0-7.1,3.5-10.6,10.3-10.6s10.3,3.5,10.3,10.6v6.8h-7.3v-6.8c0-2.4-.9-3.5-3.1-3.5h0c-2.1,0-3.1,1.2-3.1,3.5v4.7c0,2.4,2.4,4.9,6.8,8.2,4.5,3.3,6.8,7.1,6.8,11.5v6.4c0,7.1-3.5,10.6-10.3,10.6s-10.3-3.5-10.3-10.6v-6.8h7.3v6.8c0,2.4.9,3.5,3.1,3.5s3.1-1.2,3.1-3.5v-5.9c0-2.4-2.4-5.2-6.8-8.5-4.5-3.3-6.8-7.1-6.8-11.8v-4.7h0v.1Z"/>
    <path class="st0" d="M1489.37,74.7h18.8v7.1h-11.5v14.6h10.1v7.3h-10.1v14.6h11.5v7.1h-18.8v-50.6h0v-.1Z"/>
  </g>
  <g>
    <path class="st0" d="M1062.53,115.33c0,6.92-3.16,10.28-10.28,10.28s-10.28-3.16-10.28-10.28v-30.65c0-6.92,3.16-10.28,10.28-10.28s10.28,3.16,10.28,10.28v6.92h-7.51v-6.92c0-2.37-.99-3.16-3.16-3.16h0c-1.78,0-3.16.99-3.16,3.16v30.65c0,2.37.99,3.16,3.16,3.16s3.16-.99,3.16-3.16v-11.67h-3.16v-6.92h10.67v18.59h0Z"/>
    <path class="st0" d="M1068.66,74.79h18.59v6.92h-11.67v14.43h9.69v6.92h-9.69v14.43h11.67v6.92h-18.59v-49.65h0v.4-.37Z"/>
    <path class="st0" d="M1112.75,115.33c0,6.92-3.16,10.28-10.28,10.28s-10.28-3.16-10.28-10.28v-30.65c0-6.92,3.16-10.28,10.28-10.28s10.28,3.16,10.28,10.28v30.65ZM1105.44,84.68c0-2.37-.99-3.16-3.16-3.16h0c-1.78,0-3.16.99-3.16,3.16v30.65c0,2.37.99,3.16,3.16,3.16s3.16-.99,3.16-3.16v-30.65Z"/>
    <path class="st0" d="M1134.7,109.2l8.3-34.01h7.51v50.22h-6.92v-28.28l-6.13,28.28h-5.14l-6.13-28.28v28.28h-6.92v-50.22h7.51l8.3,34.01h-.4Z"/>
    <path class="st0" d="M1156.45,116.71l8.3,8.3h-8.3v-8.3Z"/>
  </g>
</svg>